<svg xmlns="http://www.w3.org/2000/svg" viewBox="0 0 560.06 645.9">
  <defs>
    <style>
      .cls-1 {
        fill: #93c954;
      }
    </style>
  </defs>
  <title>GA MAP</title>
 
      <g id="GA-map">
        <polygon class="cls-1" points="314.9 295.7 326.4 332.7 303.48 332.7 314.9 295.7"/>
        <path class="cls-1" d="M559.58,409.71l-1-.47-.72.47-1.44-.47-1.92-1h-.72l-2.16-.24h-1l-1-.47-1-1-1.2-1.19-1.2-1.44-.71-.49-1-.23-1.45-.48-.47-.24-.49-.72-.47-1-.49-.48-.47-.47-.48-.24h-.24l-.24-.24-.48.24-.48.48-.48.71-.24.25-1.2.72-.72.23-.48-.23h-1l-1-.24h-.24l-.48-.24H533l-2.16-1.44-1-1v-.47h-2.4l-.24-.24-.48-.73-.24-1.67v-1.92l-.24-1.2v-.24l-.24-1v-.23l-.72-.24H525v-.24l.72-.73.24-.47h.24v-1l.24-.47v-.48l-.24-.49-.24-.47-.24-.72-.72-1-1-.73-.72-1.19-.24-.49-.48-.47-.48-1-.24-.24v-.23l-.24-.24v-.73l1-1.19.24-1.2.72-1,.24-.23.72-.48.24-.24.72-1.2.24-.24v-.49l-.24-2.15-.24-.24v-.25H525l-.72-.95-.48-1.2-.24-.48V368l.48-.72v-.72h-.24v-.25l-.72-.95-.24-.24h-.24l-.48.24v.48h-.72v-.48l-1-1-1-.47v-.73l.24-.24-.24-.23-.48-.48-.48-.73-.24-.23h-.24l.48-.72v-1l-.48-.73-1-1.43-.72-.49-.48-.71-.72-1-.48-1.68.48-.48.24-.25v-.24l.24-.24h-.24v-.23l-.24-.24v-.25l.24-.23v-.25h.48l.48-.47.72-1v-.47h-.24l-.48.23h-.24l-.48-.48L514,347.56l-1.68-2.17-.72-.49-.72-1.19v-.49l.24-.23h.24v-.72h-.24l-1-.25h-.48l-.24.25-.24-.25-1.2-.71-.72-.73-.72-.48-.24-.23v-.48l.24-.49v-.24l-.24-.23-.48-1.21-.24-.23-1-.48-.48-.24-.24-.25h-1l-.48.25-1.2.24h-.48l-.72-.24-2.4-1-1-.48h-.24l-1-.49-.24-.95v-1H495l-.24-.24h-.24l-.24.47h-.48l-1.2-1-.48-1-.48-.24-.71-1-1-.72v-.25l-.73-1.19v-1.2l.24-.24h.24l.25.71v.24h.47l.49-.71V326h-.25v-.73H491l1-1,.24-.25-.72-.71h-.72l-.24-.48v-.25l.24-.71.25-1.44V320l-.49-1-.24-1h-.48v.25h-.24l-.24-.25-1.44-.71v-.24l.72-1.44v-1.2l.24-1.68.72-1,.24-.23v-.72l-.24-.25H489V308.9l-.24-.24-.24-.47-.23-.24h-.49v-.73l.25-.23h.24v-.72l-.24-.25h-.49l-.24-.24v-.47l.48-.48V302l.49-.49.23-.24v-.47l-.23-1.68-.24-.73-.73-.71-1.91-1.2h-.24l-.48.23h-.24l-.24-.23L484,296l.24-.73.24-1.44-.24-.23v-.48h-1l-.72-.24h-.48l-.48-.25-.48-.24.24-.95.72-.49.72-.71V290l-.24-.49h-.24l-1.2-.71-.24-1-.48-1.2L479,285.15h-.48l-.24-.25v-.71l.24-.73L478,283l-.48-.48v-1.44l.24-.24h.72v-.25l.48-1.92.24-2.39v-1.93l-1.2-.71L476.8,272l-.24-.24h-.72l-2.16-1.44h-.24l-.24-.72-.24-.24h-.48l-.24.24H472l-.24.23-.24-.23h-.24l-.24-.24V268.1h-.48v.24h-1l-.72-.71-.24-.48-.48-.49-.72-.71-.24.24H467l-.72-.24v-.73l.24-.23v-.24l-.24-.48h-.48l-.24.24H465v-1.44l-.24-.24h-1.92l-.48.24h-1.68v-.24l-.72-.49-.24-.24-.24-.23h-.24l-2.88-1.44-1.68-.48h-.24l-.48.24-.24-.24-1.44-1-.48-.24-.48-.48-2.16-1.69-1-.71-.48-.48-1-1.2-.24-.73-.24-.71-.72-1.44.72-1,.48-.25H447l.48-1.19-.24-.25v-.24h-.48v-.23l-.24-.24-.24-1.2-.24-.48V246l-.48-.25-.24-.24h-.72V246l.24.48v.71l-.72.25h-.72l-1.68-.49h-.24v-.23l-.24-.72v-.49l-.24-.23-1-.24-1-.24-.48-.73-.72-.71-.48-.24-.72-.24-.72-.72v-.48l.48-1.93.24-.24h.48l.24-.23.24-.24v-.48l-.24-.25-.48-.48-1-.71-1-.24h-.24v-1.69l.48-.24h1l.47-.71-.24-.24v-.25l-.48-.24-.24-.23-1.43-.24h-.49l-.72.71-.95-.24-.24-.95-.48-.25-.72-.48h-.24l.24-.23v-.48l-.24-.24-.24-.25H430v.25l-.24.24-.24.48h-.24l-.24-.24v-.24l-.24-.24-.72-.49v-1.2l-.48-.47h-.24l-.72.23h-.72l-.24-.23h-.24v-.24l.24-.48.24-.25.24-.47-.72-.72-.48-.49-.24-.47v-.48l.24-.24h.48l.72.48.48.24.48-.48v-.49l-.24-.24-.48-.47-.48-2.41v-.23l-.24-.48v-.24l.24-.25.48-.24,1-.24.24-.23.24-.48v-.24l-.24-.25-.48-.24-.24-.47v-.48l.24-.49,1-.47v-.24l.24-.24v-.72l-.24-.24v-.24l-.72-1v-.23l-.48-1v-.24l-1-.95h-1l-.48-.25-1.2-.47-.48-.48h-.48l-.24-.24-1-.25-.72-.24-.24-.23-.48-.24-.24-.48-.24-.49v-1l-.24-.49-.48-.71-.72-1.44-.24-.24h-.48V204l-.24-1-.24-.24-1-.24-.48-.49v-.47l-.48-.48-.48-.24-.24-.25-.48-1-1-1.2h-.24l-.72-.24h-.48l-1.68-1.68h-.48l-1.2-.25-1-.24-.48-.47-1-1.44h-1.2l-.24.23-.72.49h-.24v.24h-.48l-.24-.24-1-.49-.72-.47-.24-.24-.48-1-.24-.24h-.24l-.48-.24h-.24l-1.2-.24v-.25l-.48-.24h-.24l-1.92-1.91v-.24l-.48-2.17v-2.39l-1-.73-.24-.24-.24-.71-.48-1-.72-.72-.24-.25-.48-.47-.72-.72-.24-1.2v-1l-.24-1.91-.24-.24v-.49l-.24-.24-.48-1.44-.24-.95-1-1h-.48l-.48-.24v-.24l-.24-.24v-.25h-.48l-1-.71-.48-.48-.48-.49-.48-.23-.24-.24-.24.24-.48-.24-.24-.24V168l.24-1.2-.24-.24v-.49l-.24-.24h-.24l-.48-.47-.71-.48v-.25l-.25-.24-1-.95-.47-.25-.24-.24-.73-.47h-.23l-.24-.24-.72-.73-.72-.23-.48-.24-.24-.24-1.2-.49-.48-.48-.72-.71-.72-.49-.48-.24-.72-.23-.48-.72-.48-.25h-1.2l-.24.25h-1.2L365.94,156h-.24l-1-.5-.72-.46-.48-.48v-.25l-1.2-.71-1.2-1.22-.24-.24-1.44-.95-.24-.49-.48-.71-.48-1-.48-.72-.72-1-1.2-.72h-1.44l-.48.24h-.24l-1.44-.24-.24-.25-1-1.44v-.47l-.24-.72-.24-.72v-.24l-.72-.48-.24-.25-.24-.48-.24-.23v-.48l.24-.24v-.25l.24-.24h.24v-.23l-.24-.24-.72-.24-.48-.24-.24-.49-.24-1.2-.24-.24v-.23l-.24-.24v-1.92l-1.68-1.68-.48-1-.72-.48-.24-.49v-.23l-.24-.24-.48-.73-.24-.24h-.72l-.48-.24-.48-.71-.24-.24v-.72l.24-.24.24-.73.24-.24-.24-.23V126l-.72-.73-.48-.23h-.24l-.48-.48h-.24v-.49h-.24v-.24l-.24-.24-.24-.47h-.24v-1l-1-1.2-.24-.24-1-.47-.48-.48-.24-.25-.48.25-.48-.25-.48-.24-1.2-1-.24-.25-.72-1.92v-.23l-.24-.24v-.24l-.72-1-.24-.24v-2.41l-1-1.91-.24-.24v-.48l.24-.49v-.23l-.48-.72v-.49l.24-.23-.24-1.21v-1.91l-.24-.48-.24-.73v-.47l.24-.24-.48-.73-.72-.71-.72-.73h-.24l-.72-.47-.48-.48v-.24l-.72-1-.23-.73-.48-1.19-.49-1.69v-.24L324,93.6l.23-.47v-.24H324l-.24-1v-.24h-.48l-1.44-1.2-.48-.48-1-.73-1.2-1-.24-.25v-1l-.24-1.2-.24-.72-.24-.25V83.52l-.72-1.44V80.65l-.24-.49-.24-.47-.48-.73V77.28l-.72-.71v-1.2h-.24l-.24-.24-1.2-.48v-.72l.24-.48-.24-.24-.24-.25-.72-.47-2.16-1-.72.25-1.68.48h-.24l-.48-.48-1.44-.25-.72,1-.72.23-.72-.47h-.48L302.11,72l-1.44.71h-.24l-.24.24v.73h-.72l-.48-.24L296.35,72l-.48.24-.24-.24-1-.73-.48-.47-.24-.48-.48-.73v-.23H293l-1,.23h-.48l-.48-.71-1.44-1.2v-.24l1-1v-.24l-.72-.73-.48-.24h-.48l-.48.24-.72-.24v-1l-.72-1-.48-.48-1.2-1.44-.48-.24h-.24l-1-.72h-.24L282,59.05l-.24-1.45L280,57.37l-.24-.24V55.69l.24-.24-.24-.24-.24-.25h-.72l-2.16.25-.24-.25L275,54.49l-1,.23-.72-.23h-.48l-.24-.24-.72-.25-.48-.48.24-.72v-.24l-.24-.23-.48-.74-1-.71-.72-.48-1.2-.25-.72-.24-.24-.23-.72-.72h-.24l-1.44-1.44V46.8l-.48-.48h-.48l-.48.24H263l-.24-.73-.48-.48-1-.47h-.72l-.24-.24v-.49l-.24-.47-.24-.24L259.4,43v-.25l-.24-.24v-.71h.24v-.24l-.24-.49-.24-.71-.24-.24V38.15l.48-1.19,1.2-.72.72-.72.48-.72,1-1-.24-.71.24-1.21L262,29.76l1-1.44,1.2-.49.24-.24V26.15h1l.24-.47V25.2l.24-.49.48.25.24.24,1,.71.48-.23.24-.48.24-1.44L268,23l.24-1.2H270V20.64l.47-.24.24-.25v-.71l.24-.48h.48l.24-.49v-.95h.24l.48-.25.24-.24h.24l1,.24.72-.71L275,17h.48l.48-.71-.48-.73.24-.47.72-.24.24-.48h.48l.48-.25.72-.71V13l.48-.25h.24l.48-1,.24-.24h.72l.24-.25.24-.47.48-.24.24-.24.72.24h.48l1-.73.24-.24V8.88h.72l.24-.24V8.15l-.24-.24-.48-.71V6.71l.24-.24.48-.71-.24-.49.24-.71,1-1,.24-.71.24-.24.48-1-.24-.48V.71L286.51,0l-9.6.24h-.72l-4.56.23-6,.24h-1L261.8,1h-3.6l-1.44.24h-1.68l-11.76.24-7.44.24h-8.16V2.4H186.45l-2.88.24h-14.4l-1.68-.24H105.83l-5.28-.25H27.6l-.24.25H24l-1.44-.25H12.24l-1.92-.24H6L0,1.68.48,6.24v1L.72,8.64v.48l.24,1,.72,4.56.48,4.56.72,5,.24,1,.48,4.07,1,5.29L4.8,37.2H5l.48,3.12v.24l.72,4.08.24,2.16V47l.24.49.72,4.56.72,5.05,1,6.47.24,1.68L9.6,66l.24.95.24,2.41.24,1,.24,1.19L10.8,73v.25l.72,4.56,1.2,6.72L13,86.16l.72,4.8.24.25.24,2.39.24,1.92.48,3.13.24.72.24,2.4.24.48.24,1.68v.47l1.2,7,.24,1.44V114l.72,4.56.24,1,.24,2.41.24,1.44v.23l.72,4.56.24,1.21.72,5.52.72,4.07v.49l.72,4.56v.48l1.44,8.65v.71l.48,2.65.48,2.88v1l.24,1.93.24,1.44.72,4.8.24.47.24,1.93v.95l.48,2.41v.24l.24,1.2.24,1.92,1,6v.47l.24,1.44.24,2.41.72,4.32.24.71L30,198l.24.95L31,204V205l1.2,6.73.72,5.76.24,1.19.24.73,1,6.71.24,2.17,1,5.76,1.2,7.92.48,3.36.24,1.67.48,2.65,1,6.72.48,2.88v1l.24.71.48,3.12,1,6.25v1l1.2,7.68.24.49.72,4.32v1.19l.72,4.56.48,1.69.24,1.92.24,1.2v1.44h.24v1.19l.24.25v.24h-.24v.71l.24.24v.24l.24.49h.24v.24h.24v.24h.48l.48.23h.72L48,300v.73l.24.24v.47l-.24.25-.48.48v.24l-.24.47H47v2.41l.48.71.24.49,1.2,1.2V308h.24l.48.48.48.23.23.49.73.48.23.24v.71l-.23.25-.25.24v.24l-.23.71-.25.49.25.95.23.49,1.2,1.2h.24l.24.48v.24h.24v1.44l-.24.47v.49l-.24.48V319L53,322.1l.24.73v.24l.24.24h.24l.72.47.24.24,1,1.2.72,1.68-.24.25-.48.48-.48.95v.49l.24.48.48.23.24.24.24.25h.24v.24l-.24.24V331l-.24.23v.24l.24.25v.48h.24v.24h.24l.24.23v1.92l.24.25.24.95.24.24,1,1.93,1.2.95,2.4,2.65h.24L64.07,343v.72l.48,1,.24.24.24.49.48.24h.24l.48.95.24.25V348l.24.48v1.2l.24.49v.23l.24.47v1.45l-.24.48-.24.49v.95l.48,1.2V356l1.2.72,1.44.23.48,1.21.48,1.44v.24l-1,1-1,.48V362l-.24.72.24.23.24.49v1h-.24v2.41l-.48.24v1.2l-.24.24v.24h-.24l-1.2,1.2-1,.71-.24,1.21V373l.72.71.24.25,1.2.24,3.84,1.68h.24l.72.47,1.2.48.48.25L75.59,379l1.2,1.2,1,.48,1.2,1v.24l.24.24v.47l-.24.24-.48.25H78l-.24.48v.24h-.24V384h-.24l-.24.24h-.48v.49l-.24.95-.72.49-.24.24v1l-.24.48-.24.24h-.24l-1.2.23h-1.2l-.48.24H71v.24l-.24.25-.24.24v.24h-.24v.24l-.24.23v.24l.24.25v.72l-.24.47-.72.25-2.64,1-1.44.49-.48.24-.24.48L62.63,396l-.48.73V397l-1.44,1.68-.24.23h-.24l-1,.73-.48.48v.47l.24.73.48,1.44.24.95.48,1.69.24.72v.71l-.48.25-.24.24-.24.95v.25l.24.24v.48l-.24.72-.24.48.24.24-.24.47-.24,1,.24.47.24.49v.72l-.24.47v.49h.24V415h.24v.71l-.24.49.24.48-.24.47-1,1-.24.23-.24.73-.24.48v1l-.24.72v.47l.48.49v.48l-.24.47-.24.25-.48.24-1,.24-.48.47v.24l.48,1.68.48.49V427l-.72.47h-.24l-.72,1-.72.47-.24.24v.73l-.24.24-.72.47-.48.24v.25l.24.24.24.48-.24.72V433l-.48.47H50.16l-.25.24V434l.25.48.23.24v.23h.25v1l-.73.71-.23,1.21-.24.23-.24.24v.49l.24.48v1l-.24.48H49v.23l.24.49v.24l.24.24.24.24.23.71.25,1V445l-.25.25v1.43l.25.25v.22l-.25.5-.47.47-.48.72v.49h.24l.71.72.25.23.48.49h.23v.72l-.23.23-.25.48.25.49v.46l.48.74.47,1.92v.24l-.47,1.2-.25.47h-.23v3.36h.23l.25.49,1,.71.24.24.24,1,2.16,2.4v.24l.48.24h.24l.48.47v.73h-.24l-.24.71v.49l.24.24.48.24.72,1,.72.72h.24l.72.47.24.25v.48l-.24.24-.24.47v.49h.24l.48.48-.24.47v.24l-.24.73v1.44l.24.47.24.24v.25l-.24.48-.24.24.24.23.48,1v.71l.24.24.48,1,.48.47v.25l.24.24v.24l-.24.47v.24l-.24.25-.24.72-.24.47v.24l.48.49v.24l-.48.47v.24l-.48,1-.72,1.44-.48,1.2-.48.47-.72,2.17.24,2.16.48.72v2.4l-.24.23v.24h-.72l-.24.25v.48l-.24.71-.24.73v.47l.24.73v.48l-.24.47-.24.24-.24,1.44-.48,1.2V506l-.24.25-.48,1v1l.24.47H55v1.92l-.24.49v.48l.48.72v1.68l-.24.71-.24.48v.73l-.24,1.2-.24.48v.23l-.48.24-.24.49h-.24l-.72.24h-.48l-.24.24-.24.47.24.25v1l-.24.48.24.73v.24l.24.47.48,1,.24.72.24.72.24.23v.49l.24,1-.24.73v1.44l-1,1v2.41h.48l.24.24.24.47v.49L53,534.77V535h.24l.72.71h1.2l.72.24v.25l.24.24.24.48.24.47.72.73.24.47.24.73.48,1.44.24.24v.24h.24v.24H59l.48.23.72.73.48.24v.24l.48,1.2.24.49.48,1.68-.24,1v.48l1.2,2.16.72.48v.24l.48,1.2v.24l-.24,1.44.48,1.2.24.71.48.73v.71l-.24.48v1.2l-.24,1.21V560l-.24,1v.71l.24.25.48.24h.24l1.2.24.48.47.48.73v.95l-.24.49-.24.48v1.68l.24.23.72.49.48.24.24,1,.24.49,1.2,1.44.48.72.48.72.72,1.19.24.25.24.24h.24l.24.48v.47l-.48.49v.72l.24.23.24.49v1.44l.24.48.24.24.24.23v.73l-.24.24v.24l-.24.23-.24.48-.24.49v1.92l.72,1,.24.71v.24l-.24.73.24.24v.71h.24l1,1.69v1l-.24.73.24.48.24.23.24.73v.48l.24.23h1.92l1,1.45.24,1,.24.24,1,.71.72.73.48,1.44h.24l3.36.24,5.52.23,7.68.48,6,.25,1.2.24h2.63l2.16.24,2.4.24,6.72.23,1.44.24h1.44l6.24.49h2.64l3.36.24,5.28.24h.72l11.28.72H155l11.27.72,3.84.23h1.92l2.64.24h1.68l1.92.25h1.92l2.64.24h1.44l15.12,1h3.12l4.08.24,1.2.25h.24l7.91.48,8.16.47h.24l3.84.24,3.6.25,5.52.24,3.6.24h.24l4.08.24,6.24.23h1l1.44.24,4.8.25h1.2l2.64.24h1.92l3.6.24h.24l5,.47h1.44l8.16.49,1.68.24h2.16l2.4.24h2.16l7.44.47,14.16.73,7.2.48h.24l21.59,1.2,1.2.24,12.72.47,1.68.24h2.88l1.2.25h1.2l7.92.48,5,.24,5.27.23,10.56.73h3.6l1,.24,4.08.24.24.23-.48.24-.72.24-.48.25-.48.72v.23l-.48,1.44v1l.24.71.48.73.24,1-.24.49.48.95.24.25.72.48.72.71.72,1,.72,1v1.44l-.24.95-.48,1.21v.47h.24l.24.73v1l-.24,1-.48.73v.95l.72,3.37.48,1,1,2.17.48.24.72.49.48.71,1,1v.22h.24l.72.25h.24l.48-.25,1.92-.7,1.68-.25h.48v-.24h1.44l1-.24h.24l.24.24-.24.24h.24V645h.24l.48.23,1.68.25h1.44l1-.25,1.2-.23h.48l.48-1,.24-.24.24-.49.24-.48v-.95l-.48-1.69-.24-1v-1l.24-.47.48-.72.24-.49v-.71l-.48-1,.24-.47.72-1,.24-.47.24-1.44v-.73l.24-.47.72-1.21v-1.68l-.24-.71.24-.24v-.72l.24-1.44v-.48l-.24-.73h-.24v-.47l-.24-.24.24-1,.48-2.64,1-1.92-.24-.47-.24-1.44v-.73L425,614l-.24-1.44-.48-.95v-.25h-.48l-1-.48.24-1-.48-1.2-.48-1-.48-.48-.24-.73v-.71l-.48-1-.48-.23-.24-.48-.24-2.64V601l1-2.17.72-1.91-.24-1.68-.24-.49v-.24l-.24-.23-.24-.48.24-.73V591.9l.24-.72v-.24l.24-.24h1l1.2-.49.72-1V589l-.72-1.69-.72-1.19v-.49l.72-.71H425l1.2.71.72.73.24.24.72.47h.48l.48-.24.24-.47,1.2-2.17v-1.68l-.24-.71.24-.49v-.24l.24-.24,1.2-1h.72l.47.24.49.48v.23l1.2.24,1.68.24H437v-.24l.24-.24.24-.23h.72l.24.23.24.48.24.49,1.68,1.68.72,1h.24l1.92-.25.72.49.48.48.24.23.24-.23,1.2-.24h1.2l1.2-.24H449l1.2.71h.48l.72,1,.24.71.24.49.48.24h.48l.24-.24.24-.49.24-.24h.72l.48.48.48.25.48.24h.48v.24h.24l.24.24v.47l1.44,1.44.48.25,1,.48h.24l.72-.24.48-.24h.24l1.44-.25.24.25v.48l.48.24,1.68.23h.48v-.23l.24-.48v-.24h.72l.72.24h.24l.24.24v1.44l.24.47h.24l.24.24,1.68-.47.24-.24h.24l.48-.24.48.48.24.71v.25l.24.24h1.2l.24-.49v-.48h.48l.48.24h.48l.72.24,1.2.25h.72l.48.48v.24h.48l.24.23,1-.23h.48l.24.23h.24v.24h.72l.48-.47v-.24l.24-.24v-.24l.24-.25h2.88l1-.24,1.19-.24h.24l.49.24.95,1.21.24.23h.48l.48.24h.24l.49.25h1.91l-.72-1-.48-1.21L491,590.7v-.24l-.25-.49v-3.35l.48-2.41v-.47l.24-.48.72-2.41.72-1.44,1.2-1.44.24-.71.48-2.17,2.16-7.91v-7l-.72-2.39v-.24h-1l-.48.48-.72,2.4h-2.4l-1-1.2-1.44-.73-.72.24-.47.49-1-.24-.25-.25-1-.95.49-1.2,2.39-1.44,1.21-1.44.23-.72.73-.72,1-.24h1v.24l.24.23h1l.48-.47.72-1.44,1.44-6.49v-1.68l-.48-3.12.24-2.4.24-.72v-.49h1.92l1.44-.47h.48l.24-.73.48-.95.24-.24-.24-.73v-.23l.72-1.44,1.92-2.88,2.88-2.89,1,.24,1.2-.24h.24l.48-.47v-2.17l.72-2.63.72-1.44v-4.8l.48-.72,1.2-1.44.72-1.68-1.68-1.21-.72-.23h-1.2l.48-3.36v-2.17l.24-.47,1.92-4.8,1.44-2.64.48-.72,1.68-2.64,2.64-3.85,1.68-4.32,1.44-1.91v-.72l-.48-.72-1.44-1-.72-.24-1.68,1.21-.48.23-3.84-.23h-1.2l-.48-.24v-1l.24-1.44.72-.95,1.68.48,3.12-1,1.2-1.44h2.16l.24,1,.72.72h.72l1.44-2.16,1.2-3.36,1.68-4.09.24-4.32-.72-2.88v-1.19l.48-1.69-1-.71-1.2.24h-.24l-.24.72-1,.48-2.88-1.44-2.16-2.41.48-.95.72-1,3.84.47.72.24,1.92.73h.48l.48-.24,2.4-2.64,1.44-1.68h.24v-.25l2.16-1,1-1.19,1.44-2.63,1-2.18.72-.71.48-.73v-.95l-.48-.24-1-.25-.24.25h-.72L533,437.8l-.24-1.21,1.68-1.19.24-.72.24-1-.48-1.19-.48-1.69h.48l.72.25h1.68l1,.24,2.16.71,1,1,1,.47h.71l2.4-2.88,2.88-2.63.24-.25,1.2-1.68-.72-.47-1.68.24-1.68-.48-.72-1.2v-1.44l.25-1,2.63-2.39h2.4V421h2.16l1.68-.73,1.68-1.44,1-.48,1.44-1,1.2-2.16.24-.48h.24v-.24l.24-1,.24-1,.24-.95v-.24ZM257,359.29q-5.93,6.58-17.36,10.62a75.1,75.1,0,0,1-25,4q-21,0-33.52-12.76t-13.4-35.7l-.08-9.23q0-15.75,5.56-27.5a41.24,41.24,0,0,1,15.94-18.09,45,45,0,0,1,24-6.34q19.92,0,30.94,9.12T257,300.62H232.21q-1.32-8.94-5.71-12.74t-12.45-3.81a16.74,16.74,0,0,0-14.94,8.2q-5.28,8.21-5.35,23.44v6.44q0,16,5.46,24t17.17,8q10,0,14.94-4.47V333.15H213.46V315.49H257Zm81.74,13.18-6.23-19.92H297.32l-6.15,19.92H263.68l39.14-106.64H327l39.4,106.64Z"/>
 
  </g>
</svg>
