<svg xmlns="http://www.w3.org/2000/svg" viewBox="0 0 419.68 744.8">
  <defs>
    <style>
      .cls-1 {
        fill: #93c954;
      }
    </style>
  </defs>
  <title>IL-Map</title>
 
    <g id="Layer_1-2" data-name="Layer 1">
      <path class="cls-1" d="M419.44,499.73l.24-1.44-2.88-4.56-.24-.24-.24-.48.24-.48.24-.72v-.48l-.48-2.4-1-.48h-.24l-1.44-1-.24-.48.48-1.68.24-1.92v-.72l1.68-1.68,1-2.16v-1.2H417v-1.44l.24-.48v-1l-.24-.24v-.24h-.24l-1-1.44-.48-.48-1.44-.48-.72-.24-2.88-1.44-.24-1.68v-.24h.24l.72-1.92v-.24l-.72-1.92.24-1.92v-1.2l-1-1.2-.48-.24-.24-.48-1-1-.72-.24-.48-.24-.48-.24-.48-.72v-.72l-.24-.72h-.72l-.48-.48-.24-.24v-1.68l-1.2-1.2-.24-1.2v-1l.24-1.68v-.48l.24-1,.48-.24,1.44-.72,3.6-3.6,1-1.44.24-1-.72-1.92-.48-1.44-1-.48-1.2-1.68-.24-.24-.24-2.16-.24-.72,1-1.44.24-.24v-.48l-.24-1.92.48-1.2.48-1.44v-.24h.24l.72-.72.24-.24h2.64l.24-.73H412l.48-.95,1.19.48-.23-9.37v-4.08l-.24-2.4V402l-.24-3.36v-5.76l-.24-1.92v-4.08l-.24-3.84v-3.84l-.24-3.84v-1.92l-.24-3.12v-1.92l-.24-4.8v-5.76l-.24-7.92-.24-3.6v-6.24L411,338.2v-5.52l-.24-6.24v-8.17l-.24-1.92v-8.88l-.24-2.16v-7.68l-.24-4.32V282l-.24-9.84v-4.08l-.24-5.76-.24-4.08v-5.76l-.24-2.64v-3.12l-.24-5.28v-6.24l-.24-1.92v-5.76l-.24-3.12v-5.05l-.24-1.44V211.7l-.24-3.6v-1l-.24-5.28v-5.52l-.48-7.68v-5.28L407,181v-7.44l-.24-1.92v-6l-.24-3.84v-2.16l-.24-5.76v-6.72L406,145v-6.24l-.24-2.16v-8.64l-.24-.24v-8.41l-.24-.24v-7.44l-.24-.48v-8.64l-.48-1.44-.48-1.92-1.2-.48-.24-.24-.48-.48-.48-.48h-.24v-.24L401.2,97l-.24-.24-.47-1-.25-.24-.24-.48-.23-.24-.48-1v-.72l-.25-.24v-1h-.23v-.48h-.24v-.24h-.24V91l-.24-.48-.24-.48-.73-1h-.23v-.24l-.24-.48-.48-1-.24-1-.24-.72v-.24l-.48-2.16-.24-.72v-1.2l.24-.24v-.48l.24-.24v-.48h-.24v-.24H395v-.48h-.24V79h-.24l-.24-.24v-.24l-.24-.24v-.72l-.48-1.92-.24-1v-.48l-.24-.24v-.48l-.24-.24-.24-.72-.24-.72-.24-1v-.24l-.24-.48v-.24l-.48-1.2-.24-.72v-.24l-.24-.48v-.48h-.24v-.48l-.24-.24v-.72h-.24v-.72l-.24-.48-.24-.48v-.48l-.48-1v-.72l-.24-.24V59.77l-.24-.48.24-.48v-.48l-.24-.48v-.24l-.24-.24v-.24l-.24-.24v-.24l-.24-.48-.24-.24v-.24h-.24l-1-1-.24-.24-.72-.72-.24-.24h-.24l-.48-.48-.48-.48v-.24l-.48-.48-.24-.24-.24-.24-.72-1-.48-1-.48-.72-.24-.48-.72-1v-.24l-.24-.24-.72-1.44-.48-1-.48-.72-.72-1.2-.24-.48-.48-.72-.48-.72-.48-.72-.48-1.2h-.24l-.24-.48v-.48l-.24-.24-.24-.72-.24-.48-.24-.24-.24-1-.48-1.2-.24-1-.24-.72-.24-.24L372.41,30h-.24v-1l-.24-.48v-.48l-.24-1.69v-.48l-.24-.23.24-.49V22.08l.24-.24.24-1.44v-.48l.24-.72v-.72h.24v-1l.48-.24V17l.24-.24.48-1.44.24-1V11.76l.24-1.2V5.28l.24-1.68V1.68L374.33,0H362.57l-3.12.24H337.86l-1.2.24h-7.2l-1,.24h-4.32l-.72.24h-6.72l-3.36.24H299.7l-4.08.24h-6.71l-4.8.24-1.68.24h-2.16l-1.92.24h-9.84l-3.12-.24H226l-7.2-.24H197.72l-.48-.24H158.85l-1.92-.24h-3.36L148.05,1h-1.92l-.24.24h-.72L141.09,1h-1.92l-1.92.24H107L106.54,1H91.66L90.94,2.4l-.72.72v1.2l.24.48.72,1,.48.48,1.68,1.44,1.68,1,1.68.48.48.24.24.24,1.2.24.48.48.48.72.24.72V13l.24.48.72.24,3.12,1.44,1,.48.48.24v.24h.24l.48.48.48.72.48.24h.48l.48.24.24.24.48.48V19l.48.72v.24h.24l.24.48.72.72.48.24h.24v.24h.24l.24.48,1,1.92.24.24.24.48.48.24.24.24.24.49v.71l-.48.25v1.68l-.24.72v.72L113,30v.24h-.24l-.24.48v1.2l.48,1.2.24.48v.72l.48.72v.24l.72.72,1,1.2.48.72.24.48v.24l.24.48,1.68,1.44,1,.48.48.48.24.24,1.92.24,1,.24,1.2,1.2,1,.24.48.24.48.24.24.24,1.43,1,1.2.48,1.44.48h.48l1.44.72,1.2.72.72.48.72.72v.24l.24.24v.48l.24.72.24,1.2.48.24.24.24.48.24h1.92l.24.48h.24l.24.72.24.24v2.64l-.24.24v.72l-.48,1.68.24,1.44v1.92l.24,1.2.48.48.48.72.24.24v.24l.24.24v1h.24v.48h.24v.24l.24.24v.48l.24.72v1l-.72,1.2v1l-.24.24-.48.72-.48.72-.24,1-.24.72-.24,1,.24.48.24.48.72.72.24.48V79l-.24,1.68v1.44l-.24,1-1,1.92v.24l-.24.48-.24.24v1l-.24.24v1.44l-.24.48-.24.48v.24l-.24.24-.24.24v1.2H137v.48l.24.48v.72l.24,1.44v.48l-.72.72-1.68.72h-.24l-.24.24h-.24l-.48.24-.72.24-1.92,1.44-.72.24v.24l-1,.48-.48.48-1.43.48-.25.24L125.26,103l-1,1v.24l-.48,1v.72l-.24.72v.72l.48,1.2v1.92h-.24v.48h-.24l-.24.24-1,.72-.24.24v.24h-.24v1.44l-.24.72-.24,1v.24l-.24,1-.24.24v.72l.24,2.64v1l.24.48v1.92l-.24.48v.25l-.24.48-.72.48-1.2.48-.72.24-1,.24h-.24l-1.68.72-.72.48-.72.24v.24l-.24.24-.48.72-.24.48h-.24l-.24.24-.48.24-.24.24-.48.48-.48,1-.24.24-.24.24-.24.48-1,1-1.44.48h-.24l-1.2.24h-1.44l-1-.24-2.16-.72h-.24L101,133l-.48.24h-1l-.24.24-1,.72-.48.24h-1l-.48.24h-.24l-.24.24H95.5v.24l-.72.48-.24,1.2v.48l-.24.24-1.2,1-1.2.72-.24.24-.72.72-1,1-.48.48-1.2.24h-.24l-.72-.24-1.44.72-1.2.24-2.16.24-1.44.24-1.2.24-2.16-.24H77l-.24-.24H76.3l-2.16-.24H72.22l-1-.24h-1.2l-.72.24h-.24l-.24.24-.24.24-.72.24-.24.24-.24.24-.72.48-1,.72h-.24l-.72.48h-.24v.24l-.72.24-1.2.24-.48.48-.24.24h-.24l-1.92-.48h-.48l-1.44-.72-.72-.48-.24-.24h-.48l-.24.24-.48.24h-.24l-1.44.72h-.72l-1,.24h-.48l-.72.48h-.24l-.24.24-.48.24-.24.24-.24.48v.24l-.24.72v2.16l-.24.48-.48.72-.48.72-.24.72h-.24v.48l-.24.72-.24,2.64-.24.72v2.88l-.24,1-.24.48-1,1-.48,1-.24.24-.72,2.4-.48.72-.48,1-.48.72v1.2l.24.24.24.48,1,.72.72,1,1.2,1.2.72,1,.72,1.2.72,1,.24.24.24.48,1.2,2.64,1.2.48h.24l1.44-.24H53l.24-.24h.24v.24H54l.48.24.24.48.72.72.24.72.24.24v.24l.24.48v.24l.24.24.72,1.2.48,1.44.48.48.48.48.48,1.2.24.48.24.48V192h-.24v1.92l.48,2.4v.72l.24,1.2v.48l-.24.72-.24,1.44v1.68L59,204l-.48,1.2-.24,1v.48l.24,1,.24,1v1l-.24.48-.24,1-.24,1-.48,1.68-.24.48-.24.24-1.2.48-.48.48-1.44.48-.24.24h-.24v.24l-.24.24-.48.24V217l-.24.24v.24l-.24.24-.24.48-.48.72-.48.72-1,.48-.72.72-.24.25-.24.48-.24.95L48,223.71l-.24.23-.72.73-1.2,1.2-1.2,1-.24.24v.24l-.24.24-.24,1V229l-.24.48.24.24V230l.24.48v.48l.24.24v2.16l-.24.48V234l-.24.72-.24.48-.48.72-.24.48-.24.48-.24.72L42,239.55l-.24.72.24.48V241l.24,1.44v1.68l-.48.72L41.27,247v.24l-.24.24-.24.24-1.44,1.2-1.68,1-.48.24L34.55,252h-1.2l-2.16-.24H27.35V252h-.48l-.48.24-.24.24h-1L23,253l-.24.24h-.72v.24h-.24l-1.44.72-1,.48-.72.24-.24.24-.71.24-.48.48v.24l-.72.48-.48.72-.24.48-.72,1.2-.48,1.2-.24.24-.72.48-1.44,1.2-.24.72-.24.24v1.44L12,265l.24.24.72.24.72.24.24.24.24.48.48.72,1,1.44v.48l.24.24.24,1v1.2l-.24,1-.24,1v.24l-.48,1-.24.48-.24.48-.24.48v.48l-.24.24v2.4l.24.24v.72l.48,1v.24l.24.72-.24.72v1l-.24,1-.24.24-.48.48-.48.24H13l-.24.24H10.8l-.24.24-.48.48-1,1-.48.24-.48.24-.72.48-.24.24V289l-.24.48H6.72v.24l-.48.72-.48.72-.48,1.2-.24.24L4.8,294l-.24.48-1.44,3.36-.24.48-.24.48v.48H2.4V301l.24.72v.72l-.72,1.2v.24H1.68v.24H1.44l-.24.48-.24.48v.72l.24.24L1,307l-.24,1.2v1.44l.24.72v.48l-.48.72-.24.24-.24,1v.48l.24,1,.24,1.92-.24,1v3.85H.48v1l.24.72v.72l.24.48L1.2,325l.24,1.68.24,1,.48,1.44v1.2l-.48,1.92v.24l.24.24v.24l.48,1v.24l.24.48L3.36,336l1,1.92v.48l.24.48v.48l.24.24.48.24v.24l.48,1,.48,1,.24.72.48,1V344H7.2l.24.48.24.24.24.24.24.24.48.48.24.48.24.24v.48l.24.24v1l-.24.48v.24l-.24.24-.48.48-.24.24-.72,1.2-.72.72-.48,1.44v1.68L7,356.68l.24,1v.24l.24.24v.24l.24.48.48.24,1.44,1.2.72.48,1,.72,1.2.72,1,.48.24.48.72,1.2.48,1v1.2l-.24.48v1l-.24,1,.24,1-.24.24v.48l-.24,1.2-.24,1.44v.24h.24v.24l.48.48.72,1,.24.24v.24h.24l.24.48.48.48,1,.72.47.48,1.44,1,1,1.2h.24l.24.24v.48l1,.48,1,.72,1,.48,1,1.2v.24l.48,1,.48.24.72.72V386l.24.48.24.24v.24l.24.48,1.2,1.2.72.48.72.24,3.12,1.44.48.24.48.72.24.72.24,1.44.24,1.68.24.48.48,1,.48.72V398l.48.48.48.24,2.16.48,1.2.24h.24l1.44.24.72,1.44.72,1.68.72,1.2.48.72,1,1,.24,1.92v1l.24.48v.24h.24l.24.72h.24v.24h.24v.24l.24.48,1.44,1.44.48.24.24.24v.24l.48.24,1.2.72.72.72,1,.72,1.2.25.48.23.72.72.48.25,1,.47h1v.25h.24l.48.23v.25h.24v.23h.24v.25l.24.24v.72l.24.24.48.48.24.24.48.24h.24V421H61l.72.25h.24l.24.23V422l.24.23.48.73h.24v.24h.24l.72.48,1.44.72.24.24,1,.48,1.2,1,.48.48h.24l1.92,2.4.48.48,1.67,1,.72.48.24.24v.72l.72.72,1,.48v.48l.72,1.2,1.68,2.16H78l1.2.48.48.24v.24l.24.24.48.72.24,1.44.24,1v1.2l.24,1,.24.48v2.88l.24.24v.72l.48,1.2v2.88l.24.48.24,1,.24.72.24.48.48.72.72,1,.24.48V457l.24.24.24,1.68v1.44l-.24.24L83,462.77l-.24.24v.72l-1.2,1v.72l.24.72.24.72.72,1.68,1,1.68.24.72.24.48v.24l.24.48v.24h.24v.24l.24.24.24.72.24,1v3.36l.24.24.24.72.24.72.48,1.68v1l.24.48.48.48.48.72.48.48,1,.48.24.48,1,1.68.24.48,3.12,1.92,1,.48.24.24h2.4l.48-.24h.24l1-.48h.24l1.2-1.68,1.44-1.68,1.2-.48.72-1,1.44-2.16.24-1v-1.2l.24-.24.24-.48.24-.48.48-1,.48-.48.48-.24,1.2-.48h1.2l.24.24h.48l1,.24,1.2.24h.72l.48.24h.48l.24.24.72.24h.24v.24h.24l1.44.72.48.24h.24v.24l1.68.72,1.2,1h.24l.24.24.24.24h.48l.72.24.72.72h4.31l.72.48.48-.24.24.24h.48l1,.72,1.2.48.24.24h.24l.24.24.72.72h.24v.24l.72.72.48.24.48.72.24.24h1l.48.24v.24l.72.24.24.24.72.24v.24l1,.72.48.48.72.24.24.24,1,.48.24.24.72.24.48.24.72.72.24.48.24.24v.72l-.24.48-.48,2.64-.24,1.2-.48,1-2.64,2.16-1.92,1.2-.48,1-.24.24-.24.48V505l-.24.72-.72,1-.72.48-1.44,1.44-.48,1-.24.48v1.44l.24,1.2.72,1.21.48.47.24.24.48,1,.24.48.24.25v.23l.48,1v1l.48,2.17v1.2l-.24.72-.24,1.44-.24,1-.24.48-.48,1.2-.48.48-.48.72h-.24l-.48.48-.24.24-.72.72-.48.24h-.24v.24h-.24l-1.44,2.4-.24.24-.24.48-.72,1v.24l-.72,1.44-.48.48-.24,1v.24l-.48,1.92-.24,1.2-.48,1.44v.72l-.23.48-.25.48-.23,2.16v.24l-.25.48-.23,1.2v.24L126,548v.24l-.72,1.44-1.92,2.16-1,1.2-.72.48-1.44,1.68-.24.24v.24l-.48.48v.24l-.48,1.68-.24.48-1.2,2.64-.24,1-.24,1.44V566l-.24,1.44v1.92l.24,1V571h.24v.72l.24.48v1.44l.48,1.68.24,1.44.48,1V578l.24.24v.24l.48.48.72,1.2,1,1.44.24.24,1,.72.48.24.72.24,1.2.48,1,.72.71.72,1,1,1.92,3.36.48.48V590l.24.24.24.72.48,1,2.64,2.4,1.2,1,3.6,2.4,1-.72h.48l1.44.72.24.24h.24l1.2.72.24.24v.72l.24.72L143,601v.24l.24.24v.24l.48.48.24.48.48.48.48.24,1.68,1.2.48.24h1l.72-.24h1l.48.24h.24v.24l.24.24.24.48v.48l.24.24.48.48,1.44.72,1.68,1.92,1,1.45.72.71h.48l1.2.24h.72l2.4-.48,1.44-.47.48.47v.72h.24l.24.24,1-.24V613l-.72,1h-.24l-.48.25-1,.71h-1.44l-.24,1-.48.25-.72.72v1.2h.24v.24l1,1.92.24.48.72,1.68.24.24v.24H162l.24.24.48.48h.24l.24.24,1.68.48,1,.24H167l.48-.24,1.68-1.2,1-1,.72-1,.24-.48,1.44-1h.72l.72.23v.25l2.4,1.92,1.2.48.48.24v1l-.24.48v.24l.48,1.2.24.48.72.72.48-.48H180l.72.24.95.24h.25l.48.48.47.24.48-.24h1l.48.48.24.72.48.48,1.2,1.2,1.44,1.2h.24l.48.24.24.24,1,.48.48.24.48.48.24.24.48.24.72,1.2.24.48v.24h.24v.72l-.24.48v.48l-.24.72-.24.48-.24.72.24,1,.24.24.24.24h.24l.24.24,1,.24.24-.24,1.44.24.48-.48h.48l.72-.24v.72l.24.24.24.24v.24h.48l.48.48h.24l.48.48.48,1.2.48.72V645l.48.24v.24l1,.48.72.24,3.12.72.72.24.72.24.24.24.72.48.24.48.24.48v.72l-.24.48-.24,1.2v4.08l.72.72.48,1,.48.48v.24l1,.72.72.72v.24l.72,1,.24.48v1.44l-.24.24h-.24l-.24.24h-.24l-.24.24h-.72l-1.68-.48-.24-.24h-.24L208,663h-.24v3.84l.48,2.16v.24l.48.72H209l.48.72.48,1,.24.72.24,1,.48,1.44h.24V675l1,1.44v.24l.72,1.2L214,679l1,1.2.24.24h.24v.24h.24l.24.48v.24h.24v.24l.24.24.24.24v.24l.72,1.44.72,2.4.24.48v.48l.24.24v.24l.24.72v1l-.24.48-.48,3.36-.24.48-.24.72-.48.48-1.2.48-.72.24h-2.16l-1,.48h-.24l-.48.48-.48,1-.48.48-1,.72-.24.24v.24l-.24.24-.24,1v1l-.24.48v1.44l.48.72.72,1,.48.72.72.72.48,1h.24l1-.24h1l.72.24h.48v.48H215v1l-.24.24-.24,1-.24.72L214,711v.73l.48,2.15v.49l.48,1.2.24.23V716l.48,1,1.44,2.41.24,1.2,1.2,1.92,1,1.68h.24l.24.48.24.24h.24v.24l.72.48.72.48h.24l.24.24v.24h.24l.24.48.72,1.2.24,1.2v.72l-.24,1.2v.48l-.72,1.44v1.2l.24.24.24.48v.24l.24.24h.24l1.68,1.2,1.68.72,1.68.72.72.48.72.48.48.48,2.15,2.16,1.45.48.47-.24.49-.48.47-.24.25-.48.71-2.16-.24-1-.72-.72-1.2-1-1.68-.72-1-.48-.72-.72-.24-.48v-.48l.24-1.44v-.24l1.44.24H234v.24h1.91l.48.24.24-.24v-.24l.24-.48.25-.24L238,733l.72,1.92v.24l.48.72,1,.72,1,.72.48.24.72.48.48.48v.24l.24.24v.24l.24.24v.72l.24.48v1.44l.24,1.44H244l.48.72,1,.48h.72l1-.24,1.2-.72.72-.24h.24l1-.48-.72-.24-1-1-1.44-1.2-.48-.48-.24-.24-.24-.24H246l-.24-.48-.24-.72-.24-.48v-.48l-.24-.24v-.24l-.24-1.2v-.24l.24-1.2.24-.72v-.24l.24-1,.48-1,.24-.72.48-.48,1-1.44.24-.24h.48l.24-.24.48-.24.48-.48.24-.72v-.24l1.2-.72.24-.24v-.24h.24l.48-.48.48-.48.48-1.2.24-.48.48-1.2.24-.48v-.72l.48-1,.48-1.2h.24l.72-1,1.44-1.44h.24l.48-.72,1.44-1.45v-.23l.48-.24h.24l1-1.21,1.68-.47.72-.73h-.24l.72-.47,1-.25,1-.48h4.56l.72.24h.72l.72.24h.48l1.44.72,3.6,1.2,1.68,1h.48l1.2.49.48.47h.48l1,.49h.24l1.44.47,1,.49,1.2.71.72,1,.48.48,1,.72.48.48.47.24.49.24.48.48h.23l.25.24H292l.25.24.23.24.24.24h.48l.24.24h.24l.24.24h1.2l1.2-.24h.72l.24.24.48.24H298l.48.24.48.24h.24l.48.24,2.88,1.2.72.24H304l.48.24.48.24,1.2.72.24.24.48.24h.24v.24l1,.72.48.24.48.72v.24l.24.24.72.72h.24l.24.24.24.24.24.24.72.48,1.68.72,1.44.48,1.2.24h1.68l1-.24.72-.24h1.44l1.92-1,.48-1.44,1-1.92v-1.2l.72-2.16.24-.24,1-3.12v-.48l-.24-.72h-.24l-.24-.25-.24-.47v-.24l-.48-1.92-.24-.24-.24-1-.72-1.92-.24-.49-1-1-1-.47-.48-.25-.72-1v-.49l-.72-1.44-.24-.48-.48-.48-1-.72-1-1v-.24L317,704l-.24-1-.72-1.44v-1l.48-1,.24-.72.48-.48v-.24l.24-1.2.72-1.2.48-1,.24-.72.24-.72.24-1.2v-1.44l.24-.48v-.48l.24-.48v-1.68l.72-1.2.48-.48,1-1.2.72-.48,1.2-.48.72-.24.72-.24.72-.48.48-.24h.24l.24-.24.48.24,1,.24,1,.72,1.2,1,.24.72.24.24h.72l.48-.24.24-.24,1-.72.72-1,.24-.24.24-.24.24-.24.24-.48.24-.48,1-.72h.48v-.24l.24-.24.24-.24,1.44-.72.24-.24h.24l1.2-.72h.24l2.88-.72h3.12l.47-.24,1.45-.24,1.67-.24h.24l1.44-.24.48-.24,1.2-.24h.24l.48-.24,1.92-.48h.72l1.92-.24h2.16v.24h.24l.48-.24.48-1,.72-.48.48.24.24-.48.24-.24V673l-.24-.24.24-.48.24-1.44-.24-.24v-1h-.24l-.48-1.44-.48-.48-.48-.24-.72-.24-.24-.24h-.24l-.48-.72-1-1.44-.48-.72-1-.72-.72-.72-1.2-.72v-.24l-.48-.72-.48-.72v-1.68l-.24-.72-1.2-2.64-.48-1.2v-1l-.24-1.2v-2.16l.72-1.44.72-1,.72-.72v-.24l.48-.24v-.72l.24-.24.72-1.2.24-.24v-.24l.48-.24,1.2-.48.48-.24.48-.72,1-.72h.24l.48-.24,1-.48.72-.72.48-.72,1-1.44.72-1.68h.24v-1.2l.24-1.2.24-1,.48-.72.48-.48-.24-.48-1-.24-.72-.24h-.24l-.24-.24v-.24l-.24-.24v-1.2l.24-.48.48-.72v-1.44l-.48-.24-.24-.24L364,625l-.48-1.2-.24-1.2.24-1,.24-.72.24-.24.24-.48.72-.72.72-.73.24-.23.24-1-.72-1.43v-.25l-.72-1.43v-.24l.72-2.17.24-.24.72-1,.72-1.2.72-.72V607.5l-1.44-4.08v-.48l-.48-1.68V601l.24-1,.24-.72v-.24l.48-1,1.2-.48.48-.24,1.44-.72.48-1.68-.24-1-.72-1-.24-.48-.24-.48-.24-1.44.72-1,1.92-1.92,1-.24,2.16-.48.24-.24.24-.24.48-.48v-.24l.48-.72.72-.48.24-.48v-1.68l-.24-.24-.48-.72-1-.48-2.4-1.68-1.68-1.68-1-1.68v-1.44l.24-1,.24-.24.24-.48.72-.48h1v-.24l.24-.24.72-1,.48-1.2v-.24l-.72-1.44v-.72l.24-.48,1.2-1.68,1-.48.72.48.48.48.24.48.24.72.48.24.72-.24h.24l.72-.72.48-.48.24-.48.24-.72.24-.72.48-.24.72.24.48.48.48.48.72.24,1-.24.72-.24.48-.72.24-1.2-.24-.24V560l.24-.24.48-1.92.24-.24v-.24l1.44-1.92.24-.24v-.24l.72-.24h.24l1.68-.72h.24v-.48l1.68-2.16.24-.48.24-.48.48-.48.72-1.2L395,548v-1.2l.24-1.2v-.48l.24-.24.72-.72v-.48l-.48-1-1-.72v-1.2l.48-1,.48-.24.48-.24,1.68-.24,2.15-1.2,1.44-1.44,1.68-.72.72-.48.24-.72v-.72l-.24-.48-.47-2.64.71-1.68.24-.48v-.48l-.24-1,1.44-2.88H406l.24-.24h.48l.24-.48V523l-.24-.48-.24-.48.24-.48.24-1.44v-1.2l.24-1v-.73l.24-.24.24-.23,1.2-1.92,1-1.45,3.12-.72,1.92-.72,1-.48.48-.24V511h.24v-.23l.72-1.21.24-.24v-.48l.24-2.16.72-1.2.24-.48.48-.72.24-.24.24-.72v-.24l-.24-1.92ZM215.72,356.4H194.35V267.54h21.37Zm73.61,0H230.6V267.54H252v72.38h37.3Z"/>
    
  </g>
</svg>
