<svg xmlns="http://www.w3.org/2000/svg" viewBox="0 0 574.46 495.9">
  <defs>
    <style>
      .cls-1 {
        fill: #93c954;
      }
    </style>
  </defs>
  <title>MO-Map</title>
        <g id="MO-map">
        <path class="cls-1" d="M335.42,242l0,3.27q0,10.35-3.56,15.87a11.18,11.18,0,0,1-10,5.51A11.35,11.35,0,0,1,311.59,261q-3.45-5.61-3.46-16.07v-5.22q.74-19.33,13.62-19.34a11.38,11.38,0,0,1,10.13,5.5Q335.42,231.38,335.42,242Z"/>
        <path class="cls-1" d="M568.7,399.41l.24-.24.48-.24h.72l.24-.49h1.44l.48-1.2.24-1.43v-.25h.24v-.23l.24-.48.24-.49v-.47l.72-3.61.48-2.16v-2.88l-.48-.48-.48-.48-.48-.48-.24-.24h-1l-.48.24-.48.24h-.48l-.48.24-1,.48-.72.48h-.48L567,385l-.72-.72-.24-1.2-.24-1v-.48l-.24-.48v-.48l-.24-.24v-.24l-.48-.24-.48-.24-.48-.48-.72-.48-1-.48-.24-.72-.72-1.44-1-1.68v.24l-.24.48v.24H557.9v-.24h-2.16l-.24,1.2.24.48.24.24.24.48.24.24,1,.24,1.2.48,1,.72.48.72.24.72-.24,1.68-.24.48-.24.24-.48.48-.48.24-1.2-.48-1.68-1.68-.48-.48-.48-.24-.72-.24-1.44-.72-1.44-.24-1.44-1v-.24h-.24v-.24l-.24-.24v-.24l-.24-.24v-1l.48-1.2v-.24l.24-1v-.48l-.24-1-.72-1-.24-.48-.24-.24h-.24l-.72-.48-.48-.48h-.24l-.24-.24-.24-.24v-.24l-1-1.2-1-1.44-.48-1-1-1.92-.48-.72-.24-.24v-.24l-.48-1v-.48l-.48-1.44-.24-.48.24-.24v-.24l.24-.72.24-.72v-1.2h-.24l-.24-.24h-1.44l-.72.24-1.68-1.68-.72-1-.24-.48v-.72h-.24l.24-.24v-.72l.24-.24V350l.25-.24v-.24l.23-.24.72-.48.24-.48.24-.72h.24v-.24h.24v-.24h.24l.72-.24,1.68-.24.48-.24h.24l1-.48.24-.24.24-.48v-.48l.48-2.88v-1.2l-.24-.48v-.72h-.24v-.48l-.72-1.92-.72-1v-.24l-.24-.24v-.24l-.24-.24h-.24l-.24-.48-.24-.24v-.24l-1-.72-.48-.48h-.24v-.24l-.24-.24-.72-1v-.24l-1-1.2v-.24l-.47-1-.25-1-.24-.48-.48-.72-.48-.48-.47-.72-.49-1.92v-3.12l.25-.24h.71l1.2.48.72-.24h.24L538,320v-.48h.24l-.24-.24v-.48l-.24-.24-.48-1H537l-.48-.48-.72-.72-.23-.24-.25-.24-.47-.72-.49-.48-.24-.48v-.48h.24V313l-.24-.48v-1.2l.24-1v-1l-.24-.48-.23-.48-.48-.24-.24-.24-.48-.24H532l-2.4-.48-.48-.24-1-.24v-.24l-.24-.24-.48-.72-.48-1-.48-.24v-.24l-.72-.24h-.24l-.24-.24v-.72h-1.2l-.48.48h-1.2l-1-.24h-.24l-.24-.24v-.24l-.24-.72v-.48L521,301v-.48l.24-.24v-1.21l-.24-.23-.24-.24-.48-1-.48-.24v-.25h-.24l-.48-.24-.24-.24-.72-.48h-.24l-.48-.23-1.44-1-1-1-.24-.23-.48-.73-.24-.24h-1.44l-.48-.24-.24-.23h-1.44v-.25l-.48.48-.72-.72-.24-.24-.24-1v-.48H509l-.24-.72v-.24h-.48l-1-.48-1.92-1.44-.48-.24-.24-.24-.48.24-1,1-.48.24-.48.72-.24.48-.48.48-1.2,1-.48.24h-1.68l-1.2-.48h-.24l-.24-.23-.48-.25-.24-.24h-.24v-.24h-.24l-.72-1.44V288l-1-1.68v-.24h-.24v-1l.48-.48.48-.48.24-.48,1-.24,1.44-.72.48-.72v-.72l-.72.24h-.24v-.24l-.24-.48-.24-.48-1.2.48-1.92.48h-1.68l-.24-.24-.72-.48-.72-1L488.07,278l-1.2-.48h-.24l-.24-.24-.24-.24v-.24l-.24-.48V276h-.24v-.24h-1.2l-.72.24H483l-.24-.24h-.24l-1.43-1h-.24v-.24h-.25v-.24l-.48-.48-.23-.24-.25-.24V272l-.23-.48v-.24h-.24l-1-.72H478l-1.21-.72h-.23l-.24.24-.72.48-2.88-1.92-1.2-.48-2.16-1.92-.24-.72-.24-.24-.24-.48v-.24h-.24l-.24-.48-1.68-2.64-.72-.72L465,260l-1-.48-.72-.24h-.48l-.48-.24-1-.72-.24-.24-.72-1-.72-1-.24-.48-.24-.24v-.24l-.48-.72-.24-1.2-.48-1.44v-1l-.24-.48v-.48h-.24v-.72l-.24-.48v-6l.24-.72,1-2.16v-.48l.48-1.44.24-.48v-.24l.24-.24,1.2-1.44.48-.24.72-1.2,1.44-1.68.48-1.2v-.24l.24-.24v-.24l.24-.72v-1l.24-1.44.24-.48v-1l.24-1.2.24-1,.24-1.68.24-1,.24-.24.72-1.2v-.24l.48-.72v-.24l.24-.24.24-.24,1-1.92.24-.24h.24l.24-.24.48-.72h.24v-.24l.48-.24.48-.72.24-.48.48-1V212H472v-1l.24-1v-1.68l-.24-1.68-.24-.72-.24-.72V205l-.48-.48-.48-1h-.24l-.24-.48-.72-1-.24-1v-1.68l.48-.72,1-1.21.72-.24.48-1,.24-.48v-.48l.24-.48.48-.48,1.44-1.2,1.92-1.92.48-.72.23-1,.25-2.16v-1.2l-.25-.48-.71-.24-.48-.24-.48-.48h-.24l-.72-.24-.24-.24-.48-.24-.48-.24-.72-.72H472l-.48-.24-.24-.24-.48-.24h-.24l-.24-.24h-.72l-.72-.72-.48-.24V181l-.48-.24v-.24l-.72-.48-.24-.24h-.24l-.24-.24-1-.24-.72-.48-.48-.24h-.24l-.48.24-.48-.24-.48-.24h-.72l-1,.24h-1.2l-.72-.48-.48-.24h-.48l-.24-.24h-.24v-.24l-1.2-.48-1.2-.72H455l-.48-.24-1.2-.48v-.24H453l-.72-.24h-.24l-.24-.24h-2.16l-.72-.24-.24-.24h-1.2l-1,.48-.48.24-.24.24-.48,1-.24.48v.24h-.24v.72l.24.24v.24h-.24l-.24,1-1,1.68-.72.72-.72.48-1.2,1.44-1,1.2-.24.24-.72.24v.24h-.72l-.24.24h-1.44l-.24-.24-.72-.48-2.64-1.44-.24-.24-.72-1.2-.24-.48-.72-.48-.48-.24-.48-.48-.24-.48-.24-.48-.24-.48-.24-1.68-.24-.48-.24-.48-.24-.24v-.72l-.24-1.92v-.72l-.24-.48-.24-.24v-.24h-.24v-.24l-.23-.24v-.24l-.25-.48-.24-.48-.71-1.44-.73-1.44-.23-.48-.25-.48v-.48l1-1v-.72l1.45-1.92v-1.2l-.25-1.44v-.24l-.24-.24v-.24l-.24-.24-.47-.72-.48-.72-.25-.24-.23-.48-.25-1v-.48l-.23-1.92v-.24l-.48-1V151l-.24-.48v-1.92l-.25-.24-.23-.72v-1l-.24-.72L423,144.5l-.47-.48-.24-.24-.48-.24-.72-.24-.24-.24-1.44-1.44-.72-1.2v-.24l-.72-.48-.72-.48v-.48l-.24-.24-.48-.24-1.44-1-.48-.24L413,135.38v-.24l-.48-.24-1.2-.72-.72-.48h-.24l-1-.72h-.24l-.48-.24h-.24v-.24l-.48-.48-.24-.24v-.24l-.24-.24-.24-.24h-1l-.24-.24h-.24l-.48-.24-.24-.48h-.24v-.72h-.24v-.48h-.24v-.24h-.24l-.48-.24-.72-.24-.72-.24h-.24l-.48-.24-.24-.24-.48-.24-1-.24-1-.48-.72-.48-1-.72-.24-.24-.48-.48h-.24l-.24-.24-.72-1-.24-.24h-.24v-.24h-.24v-.24l-.48-.48v-.24l-.24-.48v-.72l-.24-1.44-.72-.48-.72-.72-.48-1.2-.72-1.2-.48-1-1.2-.24H388l-1.68-.48h-.24l-.24-.24-.48-.48-.48-.48-.48-.72v-.48l-.24-1.44-.24-1V109l-.48-.48-.24-.48-.24-.24-2.64-1-.72-.24-.48-.48-1-1-.24-.24v-.24l-.24-.24-.24-.24-.72-.72-.24-.24-.48-.72-1.44-1.44-1-.48-.72-.48-.24-.24v-.25h-.23l-1-1-1-.71h-.25l-.24-.25-1-.72-.23-.24-.24-.48h-.24V96h-.25l-.47-.72-.48-.48v-.24h-.24V93.13l.24-1v-.24l.24-.24-.24-.72V89.53l.24-.48v-1l-.48-1-.72-1-.24-.24-.48-.24-1.2-.72-.72-.48-.72-.48-1.2-.72-.24-.24-.24-.48-.24-.24v-.24l-.24-.72-.48-1.68-.24-.72v-.48l.24-1.2.48-.72.72-1,.72-.72V73.45l-.24-.24V73l-.24-.24v-.24l-.24-.24-.24-.24-.48-.24v-.24l-.48-.48-.48-1-.24-.48-.48-.72-.24-.72-.48-.48-.24-.24v-.24l-.24-.48v-.48l-.72-1.44-.72-1-.24-.48v-.24l-.48-.72v-.24l-.24-.24.24-1.68.24-.48-.24-.48-.24-1-.24-1-.48-1.2-.24-1v-.72l-.24-.24v-.48l-.24-.72v-1h-.24v-2.4l.24-.72-.48-1.44V45.61l.24-.48.24-.48v-1l-.24-.48v-.72l.24-1v-.72l-.24-.24v-.48l.24-.48.48-.48v-.24l.48-1.2v-.48l-.24-.48v-1l.24-.48v-.48l.24-.24v-.48l1.2-2.64.24-.48V29.53h.24l.24-.72.48-.72.24-.72H358l.24-.48v-.48l.48-.48.48-.24h.48l.24-.24.24-.48.24-.24-.48-.48-.72-.24h-.72l-.48.72-.24.24v.24h-1l-.24-.24V24l-.48.48h-1l-.24-.24-.48-1v-.24l.24-.48v-.48h-.24l-.24.24h-1l-.24-.24v-.24l-.48-.24h-1v-.48l-.24-.24v-.48l.48-.72.24-.48-.24-.24h-.72l-.24-.24V18l.48-.48h.24v-1l-.24-.24h-2.16l-1-.24h-.24l-.72-.48-.48-.48v-.24l-.24-.24v-.48l-.24-.72-.48-.48-.24-.48h-.48l-.24-.24-.48-.24-.48-.24-.24-.24-.24-.24-.24-.24v-.72l.24-1.2V7.93l-.24-.24V7.45h-.48l-1-.24L340.26,7l-1.2-.24-1-.24L337.62,6h-.24V5.77l-.24-.24V5.29l.48-1.44V3.61l-.24-.48-.72-.48-1.2-.73L335,1.69l-.24-.24L334,0l-4.8.48H328l-1,.25h-1.68L322.5,1l-5.76.49h-.95l-1.68.24h-2.4l-2.4.23h-2.16l-.48.25h-2.88l-7,.48h-3.12L292,2.89h-.72l-3.84.24h-3.12l-1.68.24h-2.4l-2.4.24h-4.32l-1,.24h-1l-3.12.24h-3.12l-1.68.24-4.79.24-3.84.24h-5.52l-.48.24h-8.16l-.24.24h-8.16l-1.44.24h-.48L222.2,6H221l-3.12.24h-5.52l-.72.24h-9.59l-1.44.24H185.25L183.81,7h-6l-2.88.24h-9.36l-.24.24h-9.6l-.72.24h-7.43l-1.2.24h-9.6l-1,.24H111.1l-2.4.24h-11l-3.36-.24H85l-2.16-.24H72.47l-.24-.24H60.71l-2.4-.24h-7l-1-.24H42.72L36.24,7H33.12l-3.36-.24h-6l-3.12-.24H16.56l-2.88-.24H7.2L2.4,6H1l-.72.72L0,7.21l.24,1,.72,1v1.2l-.48.48v.72l.24.24.24.48.48.24.72.24h1l1-.48H5l.24.48.24.24,1-.72V10.33l.24-.48V9.13l.48-.48H8.64l.48.48.24.72.48.48.24.48v.48l-.24,1.2v.24l-.48.72-.48.24-2.16.72-.24.24H6.24l.72.24.24.24.48.24v1l-.24.48H7.2L7,17.05l-.48.24v1.2l.24.24L7.2,19v.24h.24l.48.48.48.24,1.2-.24h1v.24h.24l-.24.48-.24.72-.24.24v.48h.24v.24l.48.24H11v.24l-.24.24-.48.24-.24.24-.72.24v.72l-.24.24.24.72.72,1v.48l.48,1,.24,1v1.2L11,30v.48l.48.24.24.24.24.24.24.48v1.2l-.24.48-.24.24-.48.24-1.2.48-.48.24-.24.24v1l.24.48h.24l.48.24h.24l.48-.24,1.2-.48.48-.24h.72l.24.24.48.24h.24l.48.72.24.24.48.24H17v.24h.24l.24.24.48.48.24.24v.72l-.48,1.2v.72l.24.24.48.24,2.16,1.2h2.88l.24.24.48.48.48.72v.48l.24.24-.24.72v.72h-.24v.24l-.24.48-.48,1v1.2l.24.48.24.24.48.72.72.72.48.24,1.2.48.48.48v.24l.24.24v1.44l.24.24V55l.48.48h.24l.24.24h1.2l.72.72v.48l.24.24v.48l-.24.48-.48.48.24.48.24.24-.24.48-.24.24v.24l.48.24v1.2l-.72.72H30l-.48.24H29v.24H28.8v.24l-.24.24.24.48v.72l.24.24v.48l.24.24.24.24.24.48.48.24h.24l.24.24h.48l.24.24.48-.24,1.44-.48.72.24h.48l1.68,1.68,1,.24h.24l.24.48.24.72v1l.24.24v.24l.24.48,1.2.72,1.2.72.48.24.47,1,.48.48.49.72.71.48h2.16l.24.24.72.48.24.48.24.72-.24.48-.24.72v1l.48.48h.24v.24h1.92v-.24l1-.48h.72v.24h.48v.24l.24.24.24.24v.48l-.24.48.24.48v.48l.24.24.24.24.72.24,1.68.48,1.2.72h.24l.48.24h.24l2.4-.24H60l.48-.24h.24l.24-.24.24-.24.24-.48V81.85h.24v-.24l.48-.48.48-.24h.72l.72.24h1.44l1.2-.48h.48l.48.24.72.24.72.48.48.48v1.44l-.24.24-.72.72v.24l-.24.24v.48l.24.72.24.24,1,.72.72.72H71v.24H73l.24.24.48.48v.24h.24V91l-.48,1-.24.48-.48.24H70.79l-1,.24h-.48v.24h-.24l-.24.48v.72l.24.24.24.48h.24l.24.24v.24h.24l.24.24.24.24H72v-.24h.24l.24-.24.72-.48.24-.24h.48l.48-.24.24.24.24.24v.24l.24.48.24,1-.24.48v.73l-.72,1-.48.23-.48.48h-.24l-.72.25H71v-.25l-.72-.23-.72-.48-.24-.25-.72-.48v-.23l-.48-.25h-.24l-.24-.24h-.48l-.24.49-.48.23v.25l-.24.23L66,98.9v1.2l.24,1.68V102l-.24,1.2v.72l-1,1h-.72l-.24.24H62.39l-.24.24h-.24l-.48.48-.24.48-1,1.2V108l-.48.48-.48.72-.24.72-.24.72v.48l.24.24v.48l.48.72v1.2l-.24.72-.48.72v.24h-.24l-.48.24h-.24v.24h-.72v-.24l-1.2-.24H55v.24h-.24v.24h-.24v.24l-.24.24v.24l-.24,1v.72l.24,1v.24l.24.48.24.48.48.48.24.24.24.24.72,1,.48.24,1.44.72.72.72v.24l.24.48v1.44l.24.48v.48l.24.48H60l.24.24v.24l.24.24.48.24,1.2.72,1.2.24.48.24.24.24.72.48.24.48.24,1v.24l.24.48L66,133h.24v.24l1,.24.24.24.24.48.24.24v1.2l.24.48.24.24h.24v.24h.48l.72.24.24-.24h.24l.72-.24.48-.48H72l.24-.24v.24h.48l.24.24.24.72h.24v1l-.24.48-.24.24-.48.48h-.72l-.72.72v.24l-.24.24v1l.24,1.44V144l.24.24V145l.24.24v.48h.24v.24l.24.48.48.72.24.24.48.24.24.24.48.24h.24l.24.24,1,.48.48.24.24.24.48.48.24.24H77v.24l.24.24h.24l.24.72v.48l.24.48v.48h-.24v.48l-.48.72-.24.24v.48l.24.24.24.24.72.72,1,.24h1.92v-.24l.24.24h.24l.24.24.24.48.48,1,.72,1.2.72.72,1,.24.48.24h1l1-.24.48-.24,1-.48.72-.72h.72l1,.24.24.24.48,1.2-.24,1.2,1,.48h1l1.2-.24.72-.48h1.2l.48.24.48.24v1.68l-.25.48-.47.72-.48.72-.24.24v36.73L96,204.27v9.6L95.75,218v50.64l-.24.72v29.53l-.24,1,.24.72-.24,1V359.8L95,366.52v82.57h68.38l7.2-.24h14.88l6-.24h26.63l4.8-.24h12l.24-.24h13.92l1.44-.24h6.72l10.79-.24h6.48l.24-.24h9.36l.72-.24,1,.24H287l3.12-.24,1,.24.24-.24h5.28l4.32-.24h5.52l4.08-.24h2.64l1.91-.24h9.84l2.88-.24h4.56l3.12-.24h5.76l1.44-.24h5l3.36-.24h4.8l1.2-.24H365l1.92-.24h8.87l6.72-.24h2.16l6-.24h1.44l4.08-.24,3.84-.24h2.64l7-.24h.72l2.4-.24h3.6l1.44-.24h5.52l1-.24h4.07l1.68-.24h1.68l4.8-.24h5l.24-.24h5.52l.24-.24h.72l5.28-.24h4.08l2.64-.24h1l4.32-.24h5.28l4.56-.24H477l1.44-.24h3.11l1.68-.24h1.92l-.24.24h.24l-.24.24h-.24v.24H485v.48h-.24v.24H485l-.24.48,1,.48h.48v.48l-.24.24h-.24l-.24-.24-.24.48v.48h1v-.24l.24.24V445l.48.24v1.44h.24v.48l-.24.72h-.48v.72l.24.24h.48v.72h-.24v.24h.24l.48-.24.24.48h.48l.48.24.24.24.48.24.24-.24h1l1.2.48h.24l.24.24v.24l.24.24.48.48.48.72v1.68l-.24.72-.24.48-.48.48-.24.24.48.48v.24h-.24v1h.24l-.24.24-.24.24v.48l-.24.24h.24v.48h.24v-.24l.72.72.24.48.24.24v.24l-.48,1v.24l-.48.48v.72l-.48,1.2h-.72l-.72.24-.48.48h-.72l-.24.72v.72l-.48,1h-.24l-.24.24h-.24l.24.24.24.48H489v.24l-.24.48-.48.24h-1l-.72,1v.24l-.24.24h-.48v-.24l-.72.48-.48.24-.48.24-.24.48h-.48l-.24.24-.24.24-.24.48h-.48v.24l.24.24-.48.48v.24l-.48.24h-.24l-.23-.24h-.24l-.73,1.44-.23.48v.24l-.25.72.25.72v.72l-.25.48v.24l-.47.24-.24.24-.25.24-.23.48-.24.24h-.72L477,482l-.48.24-.48.24-1.2.24h-.24v.24l-.24.72v.24l-.24.72-.48.24-.48.24-.48.48h-.24v1l.24.24V487l-.24.48-1,.49-.24.71v1.45H471l-.48.47-.24.25h-.24v.23l.24.48-.24.49v.48l-.48.95-.72.49-.24.48-.24.48-.48,1H471l.24-.24h4.32l3.6-.25,4.79-.23h.72l2.4-.24,2.64-.25h2.16l2.88-.23h1.44l5.28-.24,1.92-.24h2.4l3.84-.25h.48l1.92-.24h2.16l.72-.23h3.36l2.88-.24,2.88-.25H527v-.48l.24-.48.72-1.2.24-.72.24-.48v-1.68l.24-.72v-2.16l.24-1.2v-.24l.48-.72.48-.48.72-.48,1.44-.48,1.2-.48h.24l.48-.24v-.24l.47-.24,1-.72.25-.24.47-.48v-.48l.24-.48v-1l-.24-.72-.24-.48v-.24l-.48-.72-.71-.72-1-1-.48-.24-.48-.24-.72-.48-.72-.48-1-.72-.24-.24-.48-.24-1-.48-.48-.48-.48-.48-.72-.48-.48-.48h-.24l-.48-.48v-1H526l.24-.48v-.24l.24-.24H527l.48.24h.72l2.16-.24h1l.48.24,1,.48,1.2.24h.23l.24.24h.49l1.19-.24,1-.48h.24l.72-.72.24-.24h.72l.48.24h.72l.24-.48h.24v-1l-.24-1v-.48h-.24v-.24l-.48-.24v-.24h-.24l-.24.24-.48.24-2.16-1-.48-.72-.47-.24-2.16-1.2-.72-1.2v-1l.24-.72.48-.48.48-.24.47-.24h1.68l1.92.48h1.92l.48-.24.48-.48.24-.24.48-1,.24-.72.24-.72V451l-.48-.72-1-1.68-1.68-2.16-.24-.24v-1.68l.24-.24,1.44-1.44v-.24l.24-.72v-1.68l-.24-.48-1.2-1-.24-.48v-.24l-.48-.72-1-1v-.24l-.48-.48-.23-.48-.25-.72-.24-.48-.48-.72v-1.44l.24-.72.24-.48.49-.72.23-.24h.24l.48-.48H538l1.44-.24.24.24h.48l.48.24h1.2l1.44.48.24.24h.24v.24l.48.72.48.72v.72l.24.72v.24l.24.24v.48l-.24.24v.72l-.24.72v.24l-.48.48v.24l-.48.48-.24.48v.48L543,440l-.24.24.24.24v.48l.24.48.48.48.72.24h1.44l.72-.48.24-.24,1-1.2.72-1,.48-.72.24-.48.24-.72,1-3.12.48-1.68v-1.68l1.2-2.64v-1l.24-1.92v-.72l.48-.72.48-.48.72-.24,1.2-.48H556l.48-.24h.24l.72,1,.48.48,1.2,1.68.48,1,1.68,1.68v.24l.48.24v.24l1,.48h.24l1.92-.24,1-.24.48-.72h.24l.24-.48,1-2.4v-2.64l.24-.48.48-.72.24-.48,1.2-1.2.72-1,.48-.72-1-.72h-.24l.24-.24v-1.44l-.72-.48-.72-1-1.2-1v-.24l-.24-.24v-.24H567v-1.68l.24-.72.48-.72.48-.72.48-.24.48-.24.24-.24h.48l.72.24h1.44l.48.48H573l.48-.24.24-.24.24-.48.24-1v-.48l-.24-.24-.24-.72-.24-.48-.48-.24h-2.4l-.48-.24-.72-.24-.24-.48-.48-1-.24-.24v-2.64ZM281.76,279.07H264.57V262.52l1.66-34L249,279.07H237.72l-17.24-50.64,1.66,34V279H205V208h22.51l15.87,49.47L259.2,208h22.56ZM352.85,245A41.88,41.88,0,0,1,349,263.39a28.43,28.43,0,0,1-11,12.33A30.39,30.39,0,0,1,321.82,280a30.93,30.93,0,0,1-16.12-4.17,28.37,28.37,0,0,1-11-11.94,40.69,40.69,0,0,1-4.07-17.82v-4a42.15,42.15,0,0,1,3.83-18.43,28.6,28.6,0,0,1,11-12.33,32.59,32.59,0,0,1,32.39,0,29,29,0,0,1,11,12.23,40.75,40.75,0,0,1,4,18.19Z"/>
      </g>
</svg>
