<svg xmlns="http://www.w3.org/2000/svg" viewBox="0 0 304.52 201.89"><defs><style>.cls-1{stroke:#000;stroke-miterlimit:10;}</style></defs><title>Zoya Group Logo</title><g id="Layer_2" data-name="Layer 2"><g id="Zoya_Group" data-name="Zoya Group"><path id="z-top" d="M260.26,30.69S228,42.75,227.09,42.78h-.36c-15.2,5.69-51.47,20.05-91.74,53.76-28.64,24-45,38.46-63.87,63-27.62,36-32.11,42-32.36,42.3.15-1.16,6.8-48.7,61.82-111.33,3.88-4.41,16.82-17.68,61.16-58.93l-.43-.05C96.39,25,46.36,38.76,44.36,40.09,45.81,38.86,93.24-.52,167.89,0,208.83.3,260.14,30.62,260.26,30.69Z" style="fill:#93cb52;"/><path id="z-bottom" class="cls-1" d="M4.28,167.24c70.63-50,80.84-50.06,102.23-55.84,36.2-9.78,94.41,12.63,163.79,59.78,16.45,11.18,32.31,21.39,34,22.3-1.94-1.06-88.8-52.66-176-50.2C54.37,145.37,4.28,167.24,4.28,167.24Z" style="fill:#93cb52;"/></g></g></svg>