<svg xmlns="http://www.w3.org/2000/svg" viewBox="0 0 823.23 169.32"><defs><style>.cls-1{stroke:#000;stroke-miterlimit:10;fill: white;}.cls-2,.cls-4{font-size:140px;fill: #93cb52;}.cls-2{font-family:ReindeerSF, Reindeer SF;fill: #93cb52;}.cls-3{font-size:160px;font-family:ForteMT, Forte;fill: #93cb52;}</style><feDropShadow dx="0.2" dy="0.4" stdDeviation="0.2"/></defs><title>Asset 1</title><g id="Layer_2" data-name="Layer 2"><g id="Zoya_Group" data-name="Zoya Group"><path id="z-top" d="M182.36,49.42s-22.42,8.39-23.07,8.42H159c-10.57,4-35.8,14-63.82,37.4C75.28,111.92,63.91,122,50.78,139.1c-19.22,25-22.34,29.19-22.52,29.43.11-.81,4.74-33.89,43-77.45C74,88,83,78.77,113.82,50.07l-.3,0c-45.16-4.56-80,5-81.36,5.92,1-.85,34-28.25,85.94-27.88C146.58,28.28,182.27,49.38,182.36,49.42Z" style="fill:white;"/><path id="z-bottom" class="cls-1" d="M4.28,144.42c49.14-34.76,56.24-34.82,71.12-38.85,25.19-6.8,65.68,8.79,114,41.59,11.44,7.78,22.47,14.88,23.63,15.51-1.34-.73-61.77-36.63-122.42-34.92C39.13,129.2,4.28,144.42,4.28,144.42Z"/><text id="z-name" class="cls-2" transform="translate(169.78 133.77)">oya</text><text id="g-name" class="cls-3" transform="translate(450.41 133.68)">G<tspan class="cls-4" x="100" y="0">roup</tspan></text></g></g></svg>
 
